<svg xmlns="http://www.w3.org/2000/svg" viewBox="0 0 272.34 101.45"><defs><style>.cls-1{fill:#47ae4c;}.cls-2{fill:#010101;}.cls-3{fill:#1d1d1b;}</style></defs><title>landscape-logo-black</title><g id="Layer_2" data-name="Layer 2"><g id="behance"><path class="cls-1" d="M37,3.85a4.52,4.52,0,0,1,4.51,4.51V40.49A4.53,4.53,0,0,1,37,45h-6.3a4.53,4.53,0,0,1-4.51-4.52V8.36a4.52,4.52,0,0,1,4.51-4.51H37M37,.5h-6.3a7.86,7.86,0,0,0-7.86,7.86V40.49a7.86,7.86,0,0,0,7.86,7.87H37a7.86,7.86,0,0,0,7.86-7.87V8.36A7.86,7.86,0,0,0,37,.5Z"/><g id="surface1"><path class="cls-2" d="M12,0l0,1.55V47.86H8.88V29.61l-7.33,0L0,29.61V9.23A9.21,9.21,0,0,1,9.19,0l1.28,0ZM8.88,3.17A6.06,6.06,0,0,0,3.1,9.23V26.44H8.88Z"/></g><path class="cls-1" d="M92.68,3.85a4.51,4.51,0,0,1,4.51,4.51V40.49A4.52,4.52,0,0,1,92.68,45H86.39a4.52,4.52,0,0,1-4.51-4.52V8.36a4.51,4.51,0,0,1,4.51-4.51h6.29m0-3.35H86.39a7.86,7.86,0,0,0-7.86,7.86V40.49a7.86,7.86,0,0,0,7.86,7.87h6.29a7.86,7.86,0,0,0,7.86-7.87V8.36A7.86,7.86,0,0,0,92.68.5Z"/><g id="surface1-2" data-name="surface1"><path class="cls-2" d="M67.69,0l0,1.55V47.86H64.55V29.61l-7.33,0-1.55,0V9.23A9.21,9.21,0,0,1,64.86,0l1.28,0ZM64.55,3.17a6.06,6.06,0,0,0-5.78,6.06V26.44h5.78Z"/></g><path class="cls-1" d="M37,56.49A4.52,4.52,0,0,1,41.52,61V93.14A4.52,4.52,0,0,1,37,97.65h-6.3a4.52,4.52,0,0,1-4.51-4.51V61a4.52,4.52,0,0,1,4.51-4.51H37m0-3.35h-6.3A7.86,7.86,0,0,0,22.85,61V93.14A7.86,7.86,0,0,0,30.71,101H37a7.86,7.86,0,0,0,7.86-7.86V61A7.86,7.86,0,0,0,37,53.14Z"/><g id="surface1-3" data-name="surface1"><path class="cls-2" d="M12,52.68l0,1.55V100.5H8.88V82.25l-7.33,0L0,82.25V61.87a9.2,9.2,0,0,1,9.19-9.19l1.28,0ZM8.88,55.81A6.06,6.06,0,0,0,3.1,61.87V79.09H8.88Z"/></g><path class="cls-1" d="M92.68,56.49A4.51,4.51,0,0,1,97.19,61V93.14a4.51,4.51,0,0,1-4.51,4.51H86.39a4.51,4.51,0,0,1-4.51-4.51V61a4.51,4.51,0,0,1,4.51-4.51h6.29m0-3.35H86.39A7.86,7.86,0,0,0,78.53,61V93.14A7.86,7.86,0,0,0,86.39,101h6.29a7.86,7.86,0,0,0,7.86-7.86V61a7.86,7.86,0,0,0-7.86-7.86Z"/><g id="surface1-4" data-name="surface1"><path class="cls-2" d="M67.69,52.68l0,1.55V100.5H64.55V82.25l-7.33,0-1.55,0V61.87a9.2,9.2,0,0,1,9.19-9.19l1.28,0Zm-3.14,3.13a6.06,6.06,0,0,0-5.78,6.06V79.09h5.78Z"/></g><path class="cls-3" d="M136,3.76c11.64,0,16.23,5.56,16.23,16.56v3.52c0,7.91-2.24,12.82-8.76,14.85,7.27,2,10,7.8,10,16V61c0,11.22-5.44,17.52-17.09,17.52H119.18V3.76Zm-2,31.73c6.62,0,10-2.14,10-9.94V21.17c0-6.62-2.25-9.82-8.23-9.82h-8.22V35.49ZM136.37,71c6.09,0,8.87-3.21,8.87-10.15V54.18c0-8.33-3.31-11.11-10.47-11.11h-7.26V71Z"/><path class="cls-3" d="M172.69,51.72l-15.81-48h8.65l11.64,36.75L188.92,3.76h7.91l-15.92,48V78.53h-8.22Z"/><path class="cls-3" d="M213.7,78.53V11.35H199.92V3.76h35.89v7.59H222V78.53Z"/><path class="cls-3" d="M268.17,36.87v7.48H249.9V71h22.44v7.58H241.57V3.76h30.77v7.59H249.9V36.87Z"/><path class="cls-3" d="M119.18,84.57H129V86h-8.33v5.87h7.75v1.39h-7.75V101h-1.53Z"/><path class="cls-3" d="M159.86,84.15a8.65,8.65,0,1,1-8.52,8.65A8.24,8.24,0,0,1,159.86,84.15Zm0,15.91c4.3,0,7-3.16,7-7.26s-2.67-7.25-7-7.25-7,3.16-7,7.25S155.55,100.06,159.86,100.06Z"/><path class="cls-3" d="M195.6,84.15a8.65,8.65,0,1,1-8.51,8.65A8.25,8.25,0,0,1,195.6,84.15Zm0,15.91c4.31,0,7-3.16,7-7.26s-2.67-7.25-7-7.25-7,3.16-7,7.25S191.3,100.06,195.6,100.06Z"/><path class="cls-3" d="M224.35,84.57h5.1c8.56,0,8.9,7,8.9,8.23S238,101,229.45,101h-5.1Zm1.54,15.07h3.16c4.37,0,7.77-2.12,7.77-6.84S233.42,86,229.05,86h-3.16Z"/><path class="cls-3" d="M263.33,98a4.17,4.17,0,0,0,3.77,2.07c2.07,0,3.7-1.26,3.7-3.23,0-4.61-8.49-1.91-8.49-8.17,0-2.93,2.51-4.51,5.28-4.51a5.35,5.35,0,0,1,4.49,2.07l-1.33,1a3.67,3.67,0,0,0-3.21-1.62c-2,0-3.69,1-3.69,3.11,0,5,8.49,2,8.49,8.17,0,3-2.45,4.62-5.12,4.62A6.17,6.17,0,0,1,261.87,99Z"/></g></g></svg>