<svg xmlns="http://www.w3.org/2000/svg" viewBox="0 0 210.25 48"><defs><style>.cls-1{fill:#f2f2f2;}.cls-2{fill:#47ae4c;}</style></defs><title>line-pattern-white</title><g id="Layer_2" data-name="Layer 2"><g id="pattern"><path class="cls-1" d="M37,3.35a4.52,4.52,0,0,1,4.51,4.51V40A4.52,4.52,0,0,1,37,44.51h-6.3A4.52,4.52,0,0,1,26.2,40V7.86a4.52,4.52,0,0,1,4.51-4.51H37M37,0h-6.3a7.86,7.86,0,0,0-7.86,7.86V40a7.86,7.86,0,0,0,7.86,7.86H37A7.86,7.86,0,0,0,44.87,40V7.86A7.86,7.86,0,0,0,37,0Z"/><g id="surface1"><path class="cls-2" d="M12,0l0,1.55V47.86H8.88V29.61l-7.33,0L0,29.61V9.23A9.21,9.21,0,0,1,9.19,0l1.28,0ZM8.88,3.17A6.06,6.06,0,0,0,3.1,9.23V26.44H8.88Z"/></g><path class="cls-1" d="M92.68,3.35a4.51,4.51,0,0,1,4.51,4.51V40a4.52,4.52,0,0,1-4.51,4.51H86.39A4.52,4.52,0,0,1,81.88,40V7.86a4.51,4.51,0,0,1,4.51-4.51h6.29m0-3.35H86.39a7.86,7.86,0,0,0-7.86,7.86V40a7.86,7.86,0,0,0,7.86,7.86h6.29A7.86,7.86,0,0,0,100.54,40V7.86A7.86,7.86,0,0,0,92.68,0Z"/><path class="cls-1" d="M146.72,3.35a4.51,4.51,0,0,1,4.51,4.51V40a4.52,4.52,0,0,1-4.51,4.51h-6.29A4.52,4.52,0,0,1,135.92,40V7.86a4.51,4.51,0,0,1,4.51-4.51h6.29m0-3.35h-6.29a7.86,7.86,0,0,0-7.86,7.86V40a7.86,7.86,0,0,0,7.86,7.86h6.29A7.86,7.86,0,0,0,154.58,40V7.86A7.86,7.86,0,0,0,146.72,0Z"/><g id="surface1-2" data-name="surface1"><path class="cls-2" d="M121.73,0l0,1.55V47.86H118.6V29.61l-7.34,0-1.55,0V9.23a9.21,9.21,0,0,1,9.2-9.2l1.27,0ZM118.6,3.17a6.06,6.06,0,0,0-5.79,6.06V26.44h5.79Z"/></g><path class="cls-1" d="M202.39,3.35a4.51,4.51,0,0,1,4.51,4.51V40a4.52,4.52,0,0,1-4.51,4.51H196.1A4.52,4.52,0,0,1,191.59,40V7.86a4.51,4.51,0,0,1,4.51-4.51h6.29m0-3.35H196.1a7.86,7.86,0,0,0-7.86,7.86V40a7.86,7.86,0,0,0,7.86,7.86h6.29A7.86,7.86,0,0,0,210.25,40V7.86A7.86,7.86,0,0,0,202.39,0Z"/><path class="cls-2" d="M62.06,0a11,11,0,0,0-1.5,21.89V48h3.16V21.87A11,11,0,0,0,62.06,0Zm0,19a8,8,0,1,1,8-8A8,8,0,0,1,62.06,19Z"/><path class="cls-2" d="M182.54,0h-3V18.24a3,3,0,0,1-3,3h-3.06V0l-3.33,0V21.19H167.1a3,3,0,0,1-2.95-3V0H161.1a.27.27,0,0,0-.28.28v18a6.28,6.28,0,0,0,6.28,6.28h3.05V47.86h3.33V24.52h3.06a6.28,6.28,0,0,0,6.28-6.28V.28A.27.27,0,0,0,182.54,0Z"/></g></g></svg>